<svg version="1.1" id="Layer_1" xmlns="http://www.w3.org/2000/svg" xmlns:xlink="http://www.w3.org/1999/xlink" x="0px" y="0px"
	 width="100%" viewBox="0 0 1024 1024" enable-background="new 0 0 1024 1024" xml:space="preserve">
<path fill="#000000" opacity="1.000000" stroke="none" 
	d="
M614.157959,594.373535 
	C611.147156,594.350830 608.775024,593.495483 606.578796,592.321472 
	C604.609680,591.268921 603.010620,590.628723 600.582642,591.570129 
	C597.471619,592.776306 595.198853,590.272095 593.429321,588.127991 
	C590.921997,585.089722 588.815674,581.720581 586.615356,578.602600 
	C584.008850,578.846069 582.847900,580.598999 581.598389,582.087891 
	C578.066772,586.296326 574.624634,590.580444 571.184021,594.864258 
	C570.365356,595.883484 569.333923,596.992371 570.150452,598.426392 
	C570.800232,599.567322 572.092957,599.733521 573.258057,599.628967 
	C578.853210,599.126831 584.492310,601.018677 590.072876,599.243164 
	C591.678223,598.732361 593.474426,598.531128 594.574585,600.271057 
	C595.576172,601.855042 594.557129,603.133362 593.560913,604.277100 
	C590.995178,607.222778 593.417786,608.215820 595.482361,609.467529 
	C602.769226,613.885437 603.896240,616.802734 602.386169,624.578125 
	C601.562439,628.819702 599.133057,629.300781 595.862854,628.157532 
	C591.873657,626.762939 589.308228,623.759583 587.676147,619.895752 
	C586.577332,617.294434 585.568542,614.622253 584.150940,612.197205 
	C582.625427,609.587524 580.483093,607.532471 576.904358,607.543945 
	C575.359192,611.337891 577.453308,613.821533 579.785217,615.877808 
	C583.768555,619.390381 585.877869,623.674500 586.372559,628.889771 
	C586.464233,629.856873 586.650208,631.030579 587.249634,631.699524 
	C591.647766,636.607605 597.425659,634.904419 602.690735,634.317383 
	C607.016296,633.835022 609.218628,630.679199 609.031311,626.132690 
	C608.866821,622.139343 608.388489,618.105774 608.758484,614.156372 
	C609.294189,608.438660 608.665161,602.078613 617.173828,600.584473 
	C620.106079,600.069580 622.331604,596.113647 625.440491,594.405029 
	C631.893311,590.858826 634.204224,592.110596 634.511475,599.364136 
	C634.584900,601.097717 633.967590,602.984863 635.234558,604.650757 
	C637.129883,603.743530 637.330261,601.921753 638.124329,600.551392 
	C641.721436,594.343750 648.149109,589.843933 654.057373,591.420227 
	C660.065796,593.023254 667.276062,591.839783 672.357727,596.769531 
	C673.869324,598.235962 675.925293,598.476440 677.780701,599.158752 
	C683.621399,601.306396 684.233398,602.617554 681.913879,608.444580 
	C680.150085,612.875305 676.497498,616.901794 675.273865,620.837341 
	C672.010620,631.332886 663.522095,632.500061 655.492798,634.829041 
	C652.424561,635.718994 648.882080,634.973877 645.526733,635.250854 
	C650.974548,636.489075 656.729187,635.965515 661.945435,638.328796 
	C665.988281,640.160461 668.453369,642.909607 671.227661,646.754272 
	C675.435059,652.584961 674.575012,658.904480 676.729919,664.729492 
	C679.226868,671.479126 677.125610,673.797363 669.979736,674.309387 
	C666.824585,674.535461 663.654968,674.791504 660.546326,673.894104 
	C659.576599,673.614136 658.663391,673.445801 657.641479,673.846863 
	C649.430237,677.069519 644.074036,675.282837 639.412598,667.785217 
	C638.293335,665.984985 637.258240,664.132446 635.559692,661.240051 
	C635.771729,666.359131 635.399109,670.212219 634.243103,673.965210 
	C633.197327,677.360107 630.880249,678.519409 628.288879,676.193054 
	C623.014221,671.457947 616.333740,668.806091 613.640808,660.449585 
	C611.969849,655.264526 606.957947,650.697693 606.006470,644.329956 
	C605.702148,642.293152 602.822937,642.133423 600.797363,642.511963 
	C597.124146,643.198303 593.466736,643.150024 589.884521,642.292175 
	C585.314819,641.197754 581.137756,641.715454 576.869629,643.773926 
	C572.297302,645.979126 567.287476,645.960632 562.868408,643.507751 
	C557.654907,640.613770 553.213074,642.231262 548.876343,644.940002 
	C545.552368,647.016113 542.145752,649.165039 540.054199,653.093384 
	C542.244202,654.249756 543.747192,652.944031 545.218750,652.169373 
	C551.192261,649.024658 557.527222,648.190552 564.130737,649.068726 
	C567.682495,649.541016 571.066956,648.798645 574.458252,647.961792 
	C578.864502,646.874390 583.310059,646.336731 587.825317,647.137268 
	C590.530701,647.616943 593.163757,648.226624 593.343994,651.777344 
	C593.452026,653.906311 595.226929,654.248962 596.767273,654.881409 
	C601.669678,656.894470 606.477539,658.444946 606.562256,665.583862 
	C606.600769,668.830505 609.423523,672.224121 610.090576,675.842957 
	C611.018982,680.878845 609.839355,681.908020 604.655884,681.492920 
	C601.886902,681.271118 599.055115,680.515930 596.221680,681.589905 
	C595.694458,683.876770 597.731445,684.797058 598.649414,686.216309 
	C602.769104,692.585327 601.477051,697.957336 597.165771,704.153137 
	C593.958313,708.762451 591.578064,714.177917 588.731445,719.187134 
	C584.679932,726.316650 582.510864,726.651855 577.154114,720.279419 
	C574.296082,716.879517 569.827026,715.013855 568.071960,710.586914 
	C567.908752,710.175415 567.378174,709.665833 566.979980,709.630249 
	C564.207397,709.382568 561.289551,709.697083 560.100342,706.144470 
	C558.579224,701.599854 558.073425,697.101562 559.558899,692.433716 
	C560.420959,689.724854 561.345947,687.074768 562.762268,684.596375 
	C563.483826,683.333740 564.283752,681.995911 563.245544,680.405640 
	C561.120850,681.068298 560.660889,682.871643 560.237854,684.638733 
	C559.229919,688.848755 556.665894,692.053711 552.777832,693.451294 
	C547.213867,695.451233 545.490112,699.089783 546.312683,704.560669 
	C546.450684,705.478516 546.583252,706.570618 545.451233,707.649536 
	C544.008850,704.793030 544.865479,701.877991 544.666870,699.113159 
	C544.542358,697.380188 544.432251,695.575256 542.629822,694.900024 
	C540.495178,694.100342 539.729797,696.141113 538.886658,697.421265 
	C532.699219,706.816162 529.463196,717.295593 528.658997,728.397461 
	C527.115601,749.702271 526.893982,770.970459 533.230591,791.724976 
	C535.197693,798.167786 536.556091,800.256714 540.120178,802.540283 
	C541.991882,797.409058 539.502747,791.954346 541.393005,786.706238 
	C545.407898,788.292664 544.572937,793.025635 547.910034,795.402771 
	C551.757446,787.711182 551.873474,777.690125 562.919312,773.305908 
	C559.092346,781.896423 555.494751,789.275940 555.612488,799.085876 
	C561.754883,793.007019 567.026489,787.238831 576.198853,787.265137 
	C572.646484,793.184998 566.880371,797.142578 566.365601,804.594482 
	C573.052124,803.418457 578.809937,799.337952 586.102112,801.899780 
	C581.840027,805.430054 575.784607,805.026978 573.386902,810.566711 
	C577.628235,812.952881 581.861206,808.340820 585.787720,810.819458 
	C586.792786,812.114014 584.536011,812.735535 585.301025,814.151306 
	C586.237793,815.032410 587.643799,814.512085 588.918518,814.672913 
	C592.169434,815.083252 596.327637,813.167053 597.340515,818.852966 
	C597.624695,820.448303 600.816467,820.293945 602.679321,820.942749 
	C606.277405,822.196045 610.535522,821.828735 613.885254,825.181824 
	C609.184204,827.823059 604.491882,826.931274 599.968567,827.251465 
	C596.204590,827.517761 592.408752,826.259216 588.854553,829.700684 
	C586.825439,831.665405 582.764771,829.871765 579.623291,829.728577 
	C576.901489,829.604553 573.975098,828.323486 572.563354,832.269409 
	C572.101807,833.559631 570.211487,833.180420 568.904724,833.248169 
	C562.891113,833.560120 556.927063,833.137695 551.024658,831.942627 
	C549.727051,831.679932 547.756348,830.854309 547.307617,832.067139 
	C544.914307,838.536255 539.579163,835.686951 535.395752,835.960999 
	C531.627197,836.207886 528.341858,835.542603 524.251282,837.593445 
	C519.508667,839.971252 512.731018,838.410706 508.014130,835.276489 
	C503.692871,832.405151 500.096039,833.052795 495.895599,834.352966 
	C493.006348,835.247314 489.869843,836.847961 488.037750,832.409241 
	C487.416138,830.903259 485.703461,831.839111 484.430969,832.146423 
	C481.201477,832.926453 477.972107,833.717896 474.716492,834.375061 
	C472.116028,834.899963 469.849182,836.087891 467.547302,832.544495 
	C466.062988,830.259705 461.934967,832.397827 459.029205,832.608093 
	C455.910889,832.833557 453.298004,833.941223 450.887177,830.228699 
	C449.405609,827.947205 445.583618,829.568115 442.802307,829.596497 
	C440.045959,829.624634 436.835999,831.312500 435.508270,826.843872 
	C435.112518,825.511963 432.790253,826.045593 431.327271,826.085083 
	C426.374146,826.218567 421.459869,826.130798 416.582611,824.038147 
	C423.419159,820.305298 431.232147,820.140320 438.331238,818.122070 
	C439.822723,816.163147 436.919525,815.598511 437.413177,813.841248 
	C441.722992,811.236694 446.929688,812.633606 451.949127,811.507751 
	C451.270660,807.160828 446.752930,807.571411 444.336243,804.695435 
	C450.765106,802.523621 456.561829,803.725159 462.700989,805.491394 
	C460.372772,798.825500 454.705963,795.016968 449.203461,789.375610 
	C458.315674,788.951965 463.748230,793.570862 469.708221,799.300232 
	C471.009033,790.517395 467.021667,784.301086 463.656555,776.531006 
	C474.065979,780.151611 475.721191,788.675476 478.220398,796.686646 
	C482.150299,794.909607 481.438965,790.025330 485.277130,788.476135 
	C487.625458,794.058411 483.348175,799.784973 485.763977,805.737488 
	C489.121460,803.289307 490.358734,800.053772 491.599152,796.855286 
	C496.583832,784.001770 498.489258,770.518982 499.633484,756.893860 
	C500.371643,748.104004 501.178589,739.314941 500.853363,730.472168 
	C500.239929,713.793579 493.547821,699.867065 481.538116,688.492493 
	C476.982300,684.177734 471.583710,681.215942 465.008209,681.294189 
	C463.188660,681.315918 461.246216,681.269165 460.524994,683.664917 
	C461.142914,685.990967 463.410797,686.701843 465.052734,687.992676 
	C468.624054,690.800171 472.003479,693.724670 473.622772,698.164124 
	C474.844086,701.512512 476.307648,704.774353 471.963715,707.246033 
	C470.193237,708.253357 470.516327,710.492798 470.436340,712.297852 
	C470.233948,716.864868 470.038177,722.386780 465.670471,724.076355 
	C461.877228,725.543823 458.120697,721.657349 454.938599,718.951599 
	C454.096222,718.235291 453.485931,717.057068 451.938293,717.366638 
	C450.775177,719.311462 451.540375,721.525696 451.308990,723.611389 
	C450.678070,729.298706 448.132812,731.966614 442.368134,732.532532 
	C440.820404,732.684509 440.078888,733.746948 439.112274,734.615051 
	C434.986481,738.320740 430.338196,741.215637 425.310028,743.520264 
	C421.553955,745.241882 418.816528,744.447205 417.558075,740.268616 
	C416.888519,738.045288 415.937073,735.808472 415.816010,733.540222 
	C415.612488,729.727234 415.427155,726.508057 412.251038,723.339111 
	C408.980560,720.076050 410.987457,715.909729 413.653748,712.515625 
	C415.141693,710.621460 417.680786,709.470032 418.012604,706.547119 
	C415.238678,704.361877 412.341125,705.486694 409.442505,705.972778 
	C402.757416,707.093811 401.030365,704.948303 403.345520,698.627502 
	C404.166840,696.385132 405.427063,694.472290 407.089996,692.792542 
	C408.628265,691.238647 410.054962,689.755371 409.459503,687.163635 
	C408.989258,685.116882 410.539032,683.785828 412.017456,682.639526 
	C415.622406,679.844482 419.705780,677.970825 424.069946,676.770874 
	C427.254913,675.895020 430.332031,675.209534 433.187775,673.134277 
	C436.250061,670.908936 439.958618,672.511719 443.312164,673.417297 
	C446.040192,674.153992 448.702484,675.132446 451.400177,675.983826 
	C454.054047,676.821472 456.275696,676.213013 458.035126,674.026367 
	C457.929535,671.966003 456.367584,671.068054 454.995667,670.289001 
	C449.477295,667.154846 444.176941,663.760071 439.475830,659.441895 
	C436.754883,656.942627 434.685211,657.161621 433.294861,661.105896 
	C431.779694,665.404175 429.766968,669.294617 424.125885,669.670715 
	C422.484924,669.780151 421.029785,672.017639 419.405731,673.160767 
	C414.141083,676.866516 411.328461,675.485229 410.658691,668.899231 
	C410.543945,667.771118 410.795746,666.550354 409.872070,665.766907 
	C407.970520,665.253052 407.365143,666.642334 406.579620,667.640808 
	C403.470520,671.592590 399.790131,672.746887 394.501678,672.658325 
	C389.678558,672.577637 384.671753,672.045837 379.781952,672.886841 
	C373.036316,674.046875 369.100159,674.062439 370.158569,664.432678 
	C370.696075,659.542786 370.556244,655.047607 373.939545,651.185425 
	C374.239563,650.842957 374.530334,650.181763 374.401276,649.819946 
	C371.810760,642.557678 377.846161,641.863953 382.018616,640.230652 
	C386.181549,638.600952 390.609009,637.618713 395.179016,637.574341 
	C396.911591,637.557556 398.891357,637.853088 400.058411,635.864624 
	C399.178009,633.450500 397.104065,634.122681 395.411957,634.020081 
	C391.097076,633.758667 386.768799,633.686951 382.461121,633.346558 
	C377.821350,632.979980 368.598419,623.390869 368.849274,618.780151 
	C369.032349,615.415771 366.847565,613.637268 365.320038,611.363342 
	C361.234894,605.282104 361.753235,602.972717 368.541718,600.768921 
	C372.626068,599.442932 376.484344,598.364319 379.877258,595.275024 
	C382.956146,592.471680 400.922119,594.462280 404.172455,597.270020 
	C406.661713,599.420288 408.720001,602.070740 412.780914,600.705994 
	C414.446564,600.146118 415.710815,601.977295 416.736511,603.304871 
	C419.125397,606.396729 420.368011,609.980835 421.397583,613.712402 
	C421.982330,615.831543 421.641968,618.413818 424.509338,620.486450 
	C426.590332,616.464294 428.947693,612.798523 432.289490,609.863464 
	C435.880157,606.709778 438.026794,606.962280 439.475861,611.509338 
	C440.687073,615.310242 442.446289,618.624390 444.577698,622.059143 
	C447.830170,627.300659 445.205811,633.107300 442.412445,638.086060 
	C438.197205,645.599060 438.322693,647.628540 444.989777,653.178040 
	C447.368652,655.158203 449.669312,657.361694 452.793274,658.365906 
	C454.795715,656.154907 453.669891,653.720459 453.524048,651.570068 
	C452.988098,643.670044 456.558075,637.818665 462.975830,634.102844 
	C467.404510,631.538696 469.707550,627.968567 471.989563,622.755371 
	C465.963928,621.882935 460.378174,620.871277 454.747284,620.321899 
	C450.071686,619.865723 446.158447,618.996643 445.548035,613.293884 
	C445.289551,610.879028 442.858185,610.092834 441.312988,608.634949 
	C437.897003,605.411804 434.708832,602.267029 437.115936,596.658813 
	C437.974854,594.657654 436.859009,591.809448 436.646515,589.347717 
	C436.295807,585.284424 438.544434,583.855103 442.147980,584.317688 
	C445.111847,584.698242 448.685028,583.609985 450.733704,584.284302 
	C456.743713,586.262390 463.559998,585.972717 468.848358,590.089783 
	C472.221252,592.715637 473.370331,596.926514 475.902130,600.478638 
	C479.012177,598.560486 478.339874,595.400818 479.052032,592.870361 
	C480.607819,587.341919 481.786682,586.801331 486.631653,589.628967 
	C492.957916,593.321106 499.433655,605.870605 498.272034,612.202209 
	C497.816528,614.685059 496.949615,617.031982 495.639771,619.178833 
	C493.626678,622.478210 494.056122,625.457458 496.463593,628.367249 
	C500.012482,632.656616 504.001953,636.545105 506.907104,641.409119 
	C507.482910,641.212524 508.058746,641.015869 508.634552,640.819275 
	C508.634552,633.768127 508.405823,626.708008 508.682404,619.667725 
	C509.248535,605.257019 502.928711,594.070007 493.005646,584.335999 
	C490.410461,581.790283 488.508057,581.422791 484.828400,582.987366 
	C470.501312,589.079224 451.657440,585.435913 451.741119,564.496887 
	C451.748901,562.549622 451.697876,560.667114 449.172546,560.453674 
	C446.952789,560.265991 446.481567,561.986694 446.043121,563.645569 
	C444.700287,568.726685 443.314270,573.722229 437.051758,574.979004 
	C436.242371,575.141418 435.274017,576.169128 434.985809,577.005066 
	C432.973175,582.843262 428.417633,585.640625 423.141541,588.172607 
	C416.956604,591.140686 413.757812,589.836914 412.913910,582.943237 
	C412.716736,581.332520 412.884766,579.677185 412.884766,578.107361 
	C410.992584,576.820496 410.052826,578.413574 408.852600,579.115540 
	C404.349548,581.749207 400.007599,585.795166 394.594940,580.805237 
	C394.481293,580.700500 394.251129,580.589722 394.137939,580.635742 
	C386.534821,583.728027 381.524719,576.177673 374.574860,575.882324 
	C369.553589,575.668945 368.595032,573.075073 371.905975,569.347778 
	C375.872711,564.882141 376.829681,557.918152 383.309296,555.588806 
	C388.122101,543.596741 398.320587,546.191345 407.708160,546.563110 
	C408.302185,546.586670 408.903931,546.416626 410.025635,546.266541 
	C407.634125,543.643250 404.779907,542.561462 402.518250,540.728271 
	C398.898926,537.794617 394.506622,535.570984 394.970306,529.405701 
	C395.144440,527.089966 392.276855,524.618347 391.016846,522.106995 
	C388.118134,516.329590 388.908905,515.234863 395.060699,513.605957 
	C400.819397,512.081177 406.983704,513.610962 412.575012,510.777252 
	C414.243103,509.931885 416.507843,510.750641 418.374359,511.615326 
	C420.557465,512.626709 422.655121,513.075134 425.032990,511.820068 
	C427.191406,510.680878 429.219666,511.920074 431.127808,513.011047 
	C434.573242,514.981018 436.770935,518.111206 439.140625,522.152161 
	C441.451233,514.318115 448.639832,515.920410 453.995392,513.408508 
	C452.496338,510.815063 449.779175,510.638184 447.701477,509.566986 
	C441.542786,506.391846 440.184967,504.121521 440.546906,497.182556 
	C440.588257,496.390137 440.537201,495.307831 440.059387,494.817444 
	C435.182739,489.812225 437.187927,483.376251 436.374634,477.545593 
	C435.955566,474.541290 437.111298,472.736908 440.493591,472.835266 
	C446.265015,473.003082 452.115051,473.881744 457.562927,475.080658 
	C462.906738,476.256653 468.737732,479.213348 471.006104,485.977295 
	C472.845795,484.305756 472.881409,482.393066 473.466034,480.794373 
	C475.000031,476.599701 476.172638,476.291473 479.944733,478.803467 
	C488.568787,484.546600 493.453552,492.448700 494.123383,502.833923 
	C494.235413,504.571320 494.891663,505.826202 496.584869,506.094391 
	C499.317780,506.527283 502.093201,508.096802 504.797760,506.911102 
	C506.396729,506.210114 505.346954,504.659302 504.587738,503.510132 
	C503.029022,501.150604 501.296112,498.867126 500.056946,496.345001 
	C498.347412,492.865662 497.509430,489.304810 501.863342,486.831635 
	C502.414856,486.518280 503.210114,485.903839 503.201385,485.442047 
	C503.022369,475.989075 510.840088,471.968414 516.116211,466.220093 
	C516.645935,465.642944 516.924133,464.834930 518.084717,462.775391 
	C502.575775,463.726318 488.607788,461.949646 479.010040,448.538757 
	C476.443695,451.678558 477.360626,454.787567 477.430847,457.563141 
	C477.525696,461.313049 476.077271,462.563446 472.447662,462.419830 
	C467.123016,462.209076 461.777161,462.197906 456.453308,462.416992 
	C452.687744,462.572052 451.526398,461.014587 451.604492,457.418579 
	C451.778198,449.423004 451.673248,441.420868 451.640289,433.421570 
	C451.616455,427.634674 449.578552,424.479706 445.932281,424.441895 
	C441.996216,424.401093 438.532593,428.284729 438.404785,433.472351 
	C438.215973,441.133881 438.125916,448.811951 438.426117,456.466003 
	C438.603516,460.988708 437.195618,462.584930 432.522186,462.479462 
	C419.533783,462.186401 406.531494,462.172577 393.542297,462.431030 
	C388.836670,462.524658 387.433716,460.769135 387.595551,456.339203 
	C387.843201,449.559662 387.660522,442.764374 387.660522,434.789612 
	C381.628906,440.032135 379.667572,446.326843 376.250916,451.607910 
	C372.691254,457.110046 362.796631,457.031982 359.283813,451.422821 
	C356.043945,446.249573 353.256012,440.743286 348.887512,435.978485 
	C346.942535,437.385315 347.397919,439.321747 347.377472,441.010010 
	C347.306946,446.842133 347.267578,452.676300 347.349731,458.507812 
	C347.388672,461.270294 346.228516,462.409821 343.487091,462.366638 
	C338.155670,462.282623 332.821014,462.282867 327.489563,462.366425 
	C324.725128,462.409729 323.639893,461.203033 323.645264,458.474915 
	C323.688721,436.476746 323.691498,414.478394 323.642456,392.480255 
	C323.636261,389.709259 324.768982,388.472412 327.512482,388.679230 
	C327.843475,388.704224 328.178802,388.676819 328.511902,388.667175 
	C345.495239,388.175476 345.414551,388.225494 354.442505,402.777466 
	C358.703033,409.644928 362.325806,416.950378 367.780182,423.486389 
	C371.767029,420.094666 373.624512,415.610016 376.103485,411.606537 
	C380.125000,405.112000 384.056854,398.559021 387.879730,391.945862 
	C389.307037,389.476837 391.159851,388.549042 393.975891,388.619385 
	C400.125336,388.773010 406.281281,388.666870 412.381042,388.666870 
	C414.129852,387.638336 413.226990,385.472900 414.933014,383.698761 
	C421.366974,383.698761 428.337067,383.710449 435.307098,383.693207 
	C438.222656,383.686005 438.328339,385.676666 438.325836,387.795593 
	C438.318848,393.726044 438.323425,399.656494 438.323425,406.150726 
	C455.285492,400.111511 469.220154,401.291992 477.166229,420.156067 
	C484.788422,408.212280 495.239105,402.634918 508.138977,402.795746 
	C520.637329,402.951569 532.154724,406.237396 539.181335,418.844971 
	C541.538208,414.871399 540.546265,411.511932 540.587891,408.369751 
	C540.631897,405.053131 541.593384,403.470215 545.175842,403.610046 
	C550.334167,403.811432 555.971252,402.344879 560.560181,403.971252 
	C566.951904,406.236450 572.174866,403.488037 577.923523,402.822388 
	C586.019714,401.884857 598.386780,406.070831 601.761475,415.623535 
	C602.224915,416.935211 602.429321,418.680847 604.502991,418.969757 
	C607.139221,417.619049 607.467957,414.434265 609.387512,412.364960 
	C617.411987,403.714294 627.114136,400.962463 638.304016,403.933624 
	C642.713623,405.104553 643.731873,403.539734 643.661255,399.690277 
	C643.587891,395.692047 643.760986,391.687775 643.628174,387.692688 
	C643.526855,384.646149 644.857056,383.566010 647.801941,383.627655 
	C653.465637,383.746277 659.138184,383.795898 664.798157,383.607330 
	C668.313293,383.490265 669.458923,384.919769 669.390076,388.319580 
	C669.231628,396.149017 669.311218,403.984375 669.381897,411.816498 
	C669.396179,413.403168 668.833679,415.145325 670.284729,416.821259 
	C672.863403,415.280548 674.864319,413.118073 676.944214,411.036774 
	C689.024048,398.948547 718.113708,399.966309 727.571350,416.401855 
	C731.310364,422.899628 731.510010,429.611755 731.269043,436.616180 
	C731.178772,439.239471 729.343750,439.342407 727.416016,439.341949 
	C723.787903,439.341095 720.159729,439.341705 715.796875,439.341705 
	C718.121582,443.981445 721.660156,446.535706 724.652527,449.396057 
	C727.980347,452.577118 726.975464,454.509766 723.962036,456.914520 
	C717.567200,462.017670 709.802002,462.970367 702.295715,462.947723 
	C691.913086,462.916321 681.768188,460.783386 674.294556,452.371399 
	C673.639282,451.633850 673.077026,450.812439 672.486145,450.019104 
	C671.906006,449.240448 671.344666,448.447906 670.775085,447.661438 
	C670.290100,447.823944 669.805054,447.986450 669.320068,448.148926 
	C669.320068,451.384735 669.205139,454.625824 669.353210,457.854828 
	C669.494751,460.942841 668.473083,462.710327 665.122070,462.347443 
	C658.284302,461.606995 651.376526,463.615784 644.475098,460.829803 
	C641.377686,459.579468 637.563049,462.290161 633.873840,462.613434 
	C623.478333,463.524506 614.990173,460.490753 608.615173,452.065460 
	C608.118530,451.408997 607.599121,450.747833 606.983032,450.212219 
	C606.652405,449.924744 606.093323,449.900024 605.474854,449.705658 
	C603.405212,452.240723 604.425354,455.187592 604.382019,457.864899 
	C604.332214,460.942291 603.438721,462.496552 600.084961,462.400513 
	C594.589844,462.243164 589.082520,462.217529 583.589050,462.400360 
	C579.976807,462.520569 578.523743,461.238770 578.613464,457.502319 
	C578.805481,449.507690 578.683777,441.504852 578.645508,433.505585 
	C578.616150,427.381897 576.542969,424.355927 572.515930,424.412872 
	C568.448486,424.470398 565.476257,428.152191 565.388916,433.657471 
	C565.264648,441.488403 565.193787,449.326172 565.391052,457.153656 
	C565.486084,460.923309 564.430603,462.683685 560.346008,462.441406 
	C555.529297,462.155670 550.676697,462.187592 545.853149,462.394775 
	C542.042786,462.558441 540.318420,461.295837 540.587830,457.265167 
	C540.781494,454.367523 541.017090,451.358032 539.893127,447.577148 
	C534.526855,453.278442 529.511597,458.238678 522.677185,460.951416 
	C523.916626,464.588196 526.084595,467.308411 528.318298,469.490967 
	C531.577148,472.675110 531.961609,477.515564 535.723816,480.385254 
	C537.557434,481.783844 537.068115,484.704224 536.365295,487.021973 
	C535.371338,490.299988 534.339844,493.566681 533.268250,497.019073 
	C536.797546,498.400848 541.693909,493.133636 543.051941,500.899292 
	C545.241943,495.765198 547.443665,492.253479 550.554504,489.090424 
	C556.007446,483.545929 555.983215,483.262177 561.540588,488.234009 
	C563.221924,488.393555 563.714294,486.983490 564.522949,485.979645 
	C567.187561,482.671692 569.105652,479.449860 574.995544,480.856781 
	C578.473328,481.687500 583.135925,478.928772 587.407959,478.244263 
	C594.089661,477.173645 595.783081,478.582245 594.764099,485.164551 
	C594.478699,487.008026 595.238037,489.135651 594.797974,490.473175 
	C592.423401,497.690613 593.990112,506.608124 586.285278,511.613037 
	C584.344849,512.873474 582.152893,513.742981 580.097778,514.832275 
	C578.684387,515.581421 576.831238,515.689880 576.028381,517.561157 
	C577.514709,519.730591 580.012634,518.623230 581.926453,519.367798 
	C586.276489,521.060059 586.864807,522.915894 583.599243,526.165527 
	C582.431274,527.327881 581.028687,528.269714 579.668030,529.218872 
	C578.339905,530.145325 576.559204,530.493286 575.724060,532.494934 
	C578.338135,535.595276 581.343079,538.306458 584.544983,540.899292 
	C587.965515,543.669128 584.940308,548.651672 587.569580,552.184082 
	C590.069397,550.852844 589.588989,549.128906 589.154541,547.353699 
	C588.322266,543.953308 587.537048,540.533142 587.703369,536.996826 
	C587.866577,533.525879 587.514099,529.814758 592.503235,529.105652 
	C594.150085,528.871582 594.290771,526.902527 594.826721,525.519226 
	C596.526184,521.132812 598.650269,516.914612 602.058716,513.654907 
	C604.968384,510.872192 607.923889,507.358337 612.845032,510.028137 
	C613.307678,510.279114 614.202026,510.078278 614.739136,509.792511 
	C618.496765,507.793274 621.700256,506.926117 626.310730,509.062164 
	C629.272583,510.434357 634.017395,508.314301 637.930725,509.683899 
	C638.238342,509.791565 638.592346,509.758575 638.918762,509.822021 
	C647.662109,511.520508 648.878723,513.757080 645.556763,522.129395 
	C644.387939,525.075134 642.125427,527.593506 644.315491,531.319153 
	C645.393860,533.153625 643.085205,535.240479 641.745483,536.922913 
	C636.647583,543.324951 629.607300,546.618591 622.093689,549.155212 
	C620.269958,549.770996 618.119385,549.818604 616.977173,551.880920 
	C617.932434,553.938538 619.580872,553.702148 621.192261,553.149231 
	C623.077942,552.502197 625.054504,551.920898 626.726624,550.883789 
	C636.038025,545.108582 645.672974,547.520630 653.459961,552.502380 
	C658.182251,555.523438 662.775574,560.520874 666.370728,565.599487 
	C668.006653,567.910400 666.271423,569.299805 664.699341,570.581787 
	C661.146667,573.478882 657.481262,576.111084 654.161743,579.435730 
	C649.924561,583.679565 642.876099,583.193115 637.257812,585.597168 
	C633.721924,587.110107 629.555786,584.584106 625.953430,582.721130 
	C624.079285,581.751831 622.634521,579.918335 620.073059,579.733032 
	C618.924011,582.176575 620.723145,584.171204 621.053589,586.307983 
	C622.009583,592.489807 620.757568,594.135071 614.157959,594.373535 
M519.336426,594.412964 
	C519.377258,601.410583 519.980042,608.340454 521.142090,615.885010 
	C524.539734,613.601013 524.683472,610.998474 524.730530,608.336731 
	C524.786194,605.187378 524.536194,602.040222 525.624939,598.946045 
	C526.596802,596.184082 528.149902,595.366211 530.962769,596.199036 
	C536.858093,597.944519 538.584473,603.954224 533.950928,609.800110 
	C522.565186,624.164917 520.968567,641.085571 520.380432,658.360901 
	C520.338623,659.588196 519.920410,661.090942 521.516846,661.873718 
	C522.981567,661.805603 523.301208,660.563965 523.878662,659.591125 
	C526.983826,654.359985 528.422241,648.549011 529.727295,642.697327 
	C533.311829,626.624939 538.803528,612.053528 553.545715,602.113403 
	C562.006470,596.408691 568.452759,588.001831 574.246155,579.375244 
	C576.759766,575.632385 576.910706,572.535767 573.663147,569.171997 
	C570.533936,565.930725 567.723755,562.331970 566.449463,557.909912 
	C565.440063,554.407043 564.305298,550.461182 567.360229,547.579529 
	C570.923950,544.217896 570.387451,539.951965 571.818726,535.664185 
	C568.503601,535.149231 565.906738,534.702026 563.296814,534.352600 
	C560.650696,533.998352 557.931152,533.829773 555.764893,532.049927 
	C550.637207,527.836914 542.974060,529.848389 541.077148,539.926086 
	C542.949768,541.351379 544.564026,539.938538 546.180908,539.345825 
	C548.727539,538.412170 550.669678,536.546509 552.700317,534.807129 
	C554.654541,533.133240 556.722290,533.379517 558.516052,535.135376 
	C560.335938,536.916931 560.527710,538.910950 558.781799,540.881409 
	C557.791870,541.998657 556.779724,543.126343 555.626465,544.063293 
	C550.685852,548.077209 550.267090,549.917114 553.716309,555.182007 
	C554.980286,557.111389 556.518311,558.957153 558.259644,560.460815 
	C564.881287,566.179016 567.315552,573.328918 566.325256,581.907898 
	C565.741760,586.962524 563.602539,590.743713 558.711121,592.635925 
	C553.357361,594.707153 547.661377,595.464233 542.083252,595.072510 
	C531.940674,594.360107 527.375549,588.704773 527.649658,578.558289 
	C527.843872,571.371643 531.660950,566.038635 536.393616,561.171753 
	C538.724304,558.774963 541.104553,556.418701 542.364868,553.252014 
	C542.914185,551.871826 543.400452,550.271362 542.223877,548.997375 
	C540.985474,547.656372 539.456177,548.314514 538.047791,548.852234 
	C530.613831,551.690552 525.480835,556.684204 522.935608,564.377014 
	C519.801025,573.850830 519.249512,583.595581 519.336426,594.412964 
M498.799866,664.173645 
	C498.361816,666.713745 497.162018,668.804749 495.366730,670.673584 
	C489.005188,677.295898 492.781586,689.471008 501.928650,691.855774 
	C503.155334,690.590576 503.533630,688.933289 503.546448,687.294739 
	C503.613953,678.646790 504.046509,669.965637 503.457550,661.357239 
	C502.645752,649.491516 497.589020,639.592102 487.369843,632.914734 
	C485.316650,631.573120 482.477203,628.627808 480.404449,631.261353 
	C478.176086,634.092590 482.066895,635.611938 483.769226,637.380920 
	C488.517761,642.315552 490.611694,648.128845 488.596161,654.734131 
	C486.723328,660.871826 482.095795,663.872681 475.698914,664.876831 
	C471.968048,665.462524 468.176147,664.926636 463.784729,665.666138 
	C468.678619,670.348450 473.994720,673.037170 479.230286,675.765442 
	C483.423096,677.950195 485.150940,677.105530 485.485474,672.361572 
	C486.033173,664.594116 490.036591,660.323303 497.510895,658.891907 
	C498.992126,660.077393 498.954407,661.747009 498.799866,664.173645 
M489.662445,545.679077 
	C487.165619,544.238403 484.660370,543.059692 482.026703,545.124023 
	C481.886230,547.740845 483.459717,549.016602 484.961853,550.335815 
	C489.546295,554.361755 493.018005,559.588745 492.635956,565.450195 
	C492.101715,573.646423 497.271027,577.750671 502.023071,582.500732 
	C503.181213,583.658386 504.494476,585.112061 506.331543,584.276855 
	C508.156921,583.447021 507.910797,581.488831 507.892975,579.857666 
	C507.737518,565.629150 502.643311,553.957703 489.662445,545.679077 
M525.899170,687.423706 
	C525.089844,691.876831 523.237610,696.286743 524.992676,700.818237 
	C526.795044,701.078491 527.336182,699.961426 528.022339,699.041138 
	C531.999023,693.707275 535.973145,688.371460 539.967468,683.050842 
	C540.878113,681.837891 541.465271,680.584290 541.741394,679.025818 
	C542.954346,672.179932 544.126587,665.275085 550.364014,660.755066 
	C551.134277,660.196899 551.741455,659.268555 551.240662,658.130737 
	C542.184143,658.064941 531.074341,670.694397 525.899170,687.423706 
M489.265991,521.607422 
	C494.722870,533.505127 501.838989,544.185913 511.874878,553.866089 
	C512.649658,551.281250 513.303345,549.896851 513.450256,548.460693 
	C513.889404,544.168152 514.884033,539.655823 513.221313,535.621033 
	C511.796814,532.164185 507.365479,533.119202 504.503937,531.586487 
	C503.626923,531.116760 502.585297,530.841064 501.873352,530.195923 
	C498.791626,527.403137 493.637695,525.940613 496.226105,519.668152 
	C496.960297,517.889038 495.521179,514.178833 492.908691,513.664673 
	C489.845490,513.061890 489.853729,516.478394 489.052155,518.491333 
	C488.775513,519.186096 489.057983,520.103455 489.265991,521.607422 
M540.327209,635.650635 
	C540.326660,637.375427 539.972717,640.490295 542.590881,639.110413 
	C547.706970,636.414124 554.706970,635.544861 555.690491,627.747070 
	C556.248108,623.326172 558.703674,619.732910 561.989685,616.727783 
	C563.217407,615.604980 564.326904,614.378662 564.924561,612.762878 
	C565.335205,611.652649 565.850647,610.537842 564.913208,609.497681 
	C563.916626,608.391907 562.628540,608.189453 561.272400,608.742249 
	C560.045288,609.242493 558.835022,609.794189 557.652649,610.392883 
	C547.569519,615.498657 543.456055,624.802979 540.327209,635.650635 
M461.575195,551.139526 
	C464.083588,549.244141 466.756470,547.526123 469.049622,545.398743 
	C470.972534,543.614868 473.110962,541.138367 471.932129,538.508423 
	C470.801178,535.985352 467.760834,537.602966 465.567749,537.448914 
	C464.608398,537.381531 463.621643,537.790527 462.640198,537.934937 
	C458.914886,538.483337 455.732971,537.985168 454.010071,533.976685 
	C453.023071,531.680420 451.222992,530.489441 448.242889,531.072998 
	C447.934845,535.370117 449.815765,539.406921 448.739960,543.522522 
	C447.849243,546.929993 447.964966,550.125610 451.372742,552.310669 
	C454.772827,554.490723 457.946716,554.067871 461.575195,551.139526 
M531.737122,539.257874 
	C532.671387,538.090332 533.373596,536.535828 534.575684,535.815002 
	C546.918030,528.414795 541.572693,515.501892 544.245483,505.109283 
	C544.289246,504.939117 543.847229,504.644012 543.348999,504.096069 
	C541.510803,507.811157 538.219788,510.740021 540.049622,515.420715 
	C540.624023,516.890137 539.825500,518.339294 539.239990,519.724426 
	C536.741882,525.634888 532.149109,529.115417 526.271118,531.309631 
	C520.997925,533.278137 518.384033,539.780884 520.586914,544.880249 
	C521.507629,547.011597 523.045898,546.990234 524.575500,545.738403 
	C526.885925,543.847656 529.048157,541.775879 531.737122,539.257874 
M635.025696,423.114594 
	C628.375244,425.712036 625.894348,433.811584 630.024780,439.441711 
	C632.992126,443.486450 638.266541,443.893860 641.627808,440.187592 
	C644.231384,437.316864 645.249634,434.008881 644.065002,430.077911 
	C642.779602,425.812531 640.379883,423.096985 635.025696,423.114594 
M516.565796,430.213776 
	C513.735779,422.953827 508.459717,420.752625 503.891113,424.925812 
	C500.545685,427.981689 499.417023,434.183777 501.748108,438.237701 
	C503.616608,441.487091 506.345276,443.456909 510.417053,442.473480 
	C514.933777,441.382599 516.614441,438.582977 516.638977,432.016937 
	C516.640198,431.684601 516.626526,431.352203 516.565796,430.213776 
M411.357880,432.507385 
	C411.638092,439.306427 410.624817,446.189758 413.025513,452.868866 
	C413.025513,433.997375 413.025513,415.125885 413.025513,396.254395 
	C410.922882,407.978546 411.854797,419.766510 411.357880,432.507385 
M693.606323,424.071259 
	C693.282043,425.468140 693.773193,426.495270 695.237915,426.511566 
	C699.127441,426.554840 703.065491,427.158783 707.011841,426.129150 
	C704.321899,419.668762 700.436035,418.965027 693.606323,424.071259 
M709.381287,442.270966 
	C710.214539,441.287262 712.068237,441.342102 712.555420,439.270844 
	C706.487549,439.710052 700.789246,438.763611 694.148682,439.943451 
	C699.179260,444.665985 703.856323,444.249115 709.381287,442.270966 
M481.910492,531.131714 
	C480.986267,531.326416 479.434998,531.552979 480.542938,532.761475 
	C481.798553,534.130920 483.598938,535.391357 485.946381,533.960022 
	C485.700409,531.876526 484.335968,531.264343 481.910492,531.131714 
z"/>
<path fill="#000000" opacity="1.000000" stroke="none" 
	d="
M420.426270,333.739014 
	C407.329895,341.959473 393.594360,340.453491 379.765167,337.803711 
	C377.189362,337.310181 374.572205,335.094574 372.396423,338.796570 
	C371.987915,339.491730 369.908356,339.328674 368.596954,339.346588 
	C364.265167,339.405823 359.923462,339.199005 355.602173,339.419586 
	C352.306854,339.587769 350.027100,338.915802 350.313110,334.836517 
	C338.874054,342.647217 328.107330,340.955658 316.865936,333.989380 
	C316.954712,340.419037 312.428040,339.423126 308.388306,339.376465 
	C304.222839,339.328339 300.041504,339.138123 295.894592,339.417786 
	C291.594635,339.707764 290.488007,337.806732 290.601593,333.836639 
	C290.825470,326.011139 290.672302,318.174438 290.648926,310.342407 
	C290.630554,304.190430 288.944489,301.493011 285.116516,301.391632 
	C280.653442,301.273438 277.493774,304.844330 277.394379,310.553345 
	C277.255157,318.549744 277.196503,326.553711 277.395081,334.547180 
	C277.487488,338.268555 276.139862,339.575134 272.469574,339.411865 
	C267.313843,339.182434 262.139465,339.285126 256.975159,339.371094 
	C254.203278,339.417236 252.630188,338.668518 252.646072,335.468445 
	C252.730453,318.471893 252.713943,301.474609 252.656876,284.477844 
	C252.647491,281.684631 253.840042,280.616364 256.551361,280.656677 
	C261.882446,280.735992 267.217285,280.747284 272.547302,280.633301 
	C274.853516,280.584015 276.357147,281.353455 276.866180,283.992126 
	C286.625275,279.152802 296.224274,277.837738 305.931122,283.531860 
	C316.161926,289.533356 315.384064,300.082550 316.732910,310.489777 
	C325.625702,303.214722 335.903259,303.761597 346.111176,303.474030 
	C343.471863,297.850372 334.272339,297.944519 324.429291,303.426361 
	C321.097198,298.958649 318.612274,293.988525 316.820312,288.685303 
	C316.169250,286.758606 317.702911,285.646545 319.281616,284.874359 
	C327.842804,280.686890 336.998016,279.535614 346.364380,279.937775 
	C349.463562,280.070862 352.557159,280.921509 355.599915,281.663208 
	C362.546234,283.356415 368.069305,287.012421 371.658051,295.039642 
	C374.266479,288.939667 378.185547,285.414459 383.294220,283.273926 
	C390.786255,280.134766 398.485657,278.923645 406.612427,280.194824 
	C411.523010,280.962952 416.496277,281.280396 421.197968,283.082062 
	C424.205261,284.234467 424.639679,282.391388 424.642395,280.064301 
	C424.648407,274.898560 424.734528,269.731689 424.650879,264.567505 
	C424.606873,261.849670 425.661743,260.619202 428.455444,260.662292 
	C434.119629,260.749573 439.788300,260.772644 445.450958,260.642029 
	C448.624268,260.568878 449.410767,262.159149 449.364807,264.961823 
	C449.267517,270.896851 449.335175,276.834564 449.335175,283.428009 
	C457.443909,280.223633 464.930939,278.456665 472.759613,281.001068 
	C480.926300,283.655396 485.546509,289.532867 487.652252,297.865540 
	C490.099945,296.191406 490.490753,293.545410 492.012665,291.663177 
	C503.501373,277.454590 525.665100,276.788666 539.198792,285.500305 
	C547.778931,291.023376 552.910706,304.918121 550.244446,314.186951 
	C549.596313,316.440125 547.991333,316.265198 546.352234,316.365173 
	C542.914612,316.574829 539.419983,315.931519 535.576477,316.917938 
	C537.175293,321.279938 540.751099,323.606842 543.663513,326.282440 
	C547.044434,329.388336 546.107117,331.350067 543.106689,333.825806 
	C536.470154,339.301910 528.315857,339.998596 520.499084,339.996979 
	C512.629700,339.995361 504.666718,338.474152 497.846466,333.568146 
	C494.295990,331.014160 491.986786,327.393372 488.303955,323.188629 
	C488.303955,327.998901 488.217957,331.599365 488.330688,335.193665 
	C488.423187,338.142548 487.228638,339.439819 484.217041,339.384216 
	C478.386719,339.276550 472.551270,339.263123 466.721497,339.382599 
	C463.682159,339.444855 462.613129,338.143372 462.645264,335.200165 
	C462.736206,326.869324 462.677460,318.536591 462.645355,310.204742 
	C462.621979,304.138214 460.798279,301.361481 456.948761,301.412201 
	C452.685455,301.468384 449.518982,304.960815 449.406250,310.280609 
	C449.236816,318.275879 449.173828,326.281982 449.405273,334.273621 
	C449.519196,338.206177 448.195038,339.665955 444.244690,339.426331 
	C439.761932,339.154480 435.225006,339.067841 430.757477,339.444580 
	C425.961548,339.848969 423.910065,338.154816 424.574402,333.331360 
	C424.685760,332.522919 424.590118,331.685944 424.590118,330.364868 
	C423.098999,331.582306 421.903107,332.558746 420.426270,333.739014 
M424.650299,301.343842 
	C424.650299,297.139709 424.650299,292.935608 424.650299,288.731476 
	C423.512848,289.578613 423.336212,290.509033 422.989136,291.370819 
	C419.136932,300.936249 419.169952,300.745728 409.273102,298.627563 
	C405.012848,297.715759 400.451752,295.758148 395.160980,299.532013 
	C405.320679,302.944885 416.276367,301.098114 424.649719,309.719971 
	C424.649719,306.448944 424.649719,304.356018 424.650299,301.343842 
M397.162659,322.616913 
	C399.145935,322.672058 401.080353,322.613922 402.583527,319.975800 
	C392.691711,316.950928 381.373230,319.007660 373.662842,310.050476 
	C373.662842,315.060730 373.662842,319.319397 373.662842,323.900726 
	C376.100342,321.680145 375.602539,316.040070 380.612366,318.351379 
	C385.681763,320.690216 391.067078,321.438080 397.162659,322.616913 
M517.922485,297.654236 
	C515.697937,299.060394 512.026367,299.084717 512.348755,303.410645 
	C516.969543,303.582184 521.309998,304.096130 525.856262,303.079987 
	C525.187073,298.569153 521.787537,298.211304 517.922485,297.654236 
M341.657532,317.082062 
	C339.547272,317.686523 337.105438,318.388153 337.931732,321.184296 
	C338.632385,323.555389 341.057953,323.937653 343.293335,323.623077 
	C347.050964,323.094269 348.262604,320.571106 348.288666,317.125397 
	C346.190094,316.059174 344.275177,316.292267 341.657532,317.082062 
M524.058228,320.624847 
	C527.036804,320.362488 529.449829,318.928040 532.634766,316.791809 
	C525.688721,316.287537 519.776367,316.030762 513.341125,317.038574 
	C516.356445,320.589020 519.740479,320.798279 524.058228,320.624847 
z"/>
<path fill="#000000" opacity="1.000000" stroke="none" 
	d="
M721.117737,302.373840 
	C715.523987,301.578888 713.638245,303.863342 714.304688,308.857147 
	C714.567139,310.823914 714.206848,312.871674 714.447205,314.843903 
	C714.968201,319.119598 717.348572,320.903931 721.510620,319.607391 
	C724.121765,318.794006 724.997559,320.487122 726.266541,321.874847 
	C728.388977,320.185760 727.605103,318.032959 727.612427,316.175476 
	C727.677979,299.515564 727.793274,282.853302 727.557983,266.196503 
	C727.494751,261.725159 728.973633,260.312592 733.301086,260.588867 
	C738.279053,260.906738 743.295227,260.765778 748.289734,260.633270 
	C751.324219,260.552765 752.429077,261.826141 752.369263,264.787323 
	C752.248718,270.753113 752.333435,276.723022 752.333435,283.282776 
	C760.681030,280.259186 768.594849,278.190125 776.828613,281.500519 
	C785.432373,284.959656 790.023621,291.200348 790.673706,300.500458 
	C790.673706,295.179810 790.741272,289.857910 790.645752,284.538971 
	C790.596497,281.795532 791.710571,280.622345 794.476257,280.659912 
	C800.472656,280.741302 806.473083,280.768433 812.467834,280.636322 
	C815.657471,280.566071 816.390198,282.177917 816.364807,284.964813 
	C816.287354,293.460815 816.408569,301.958740 816.321655,310.454590 
	C816.279602,314.564606 817.367920,318.180450 821.913086,318.397064 
	C825.787842,318.581665 827.984436,315.844299 828.801331,311.882172 
	C830.540100,303.449127 829.499573,294.954010 829.529907,286.501343 
	C829.546204,281.932739 830.906494,280.255341 835.504700,280.583374 
	C840.312073,280.926300 845.163696,280.739441 849.993225,280.644623 
	C852.785034,280.589844 854.347961,281.386322 854.334106,284.555786 
	C854.259705,301.548798 854.275146,318.542358 854.317078,335.535583 
	C854.323914,338.300568 853.126526,339.404694 850.397949,339.357635 
	C845.068420,339.265686 839.733948,339.240051 834.406067,339.371246 
	C832.110779,339.427734 830.654419,338.593201 830.028687,336.436768 
	C808.947144,345.078003 792.946960,336.661102 791.327454,318.316193 
	C791.327454,323.767334 791.203735,329.222290 791.373047,334.668152 
	C791.477478,338.026794 790.372864,339.535889 786.809204,339.404510 
	C781.318726,339.202057 775.811462,339.226288 770.318848,339.397980 
	C766.879150,339.505554 765.562622,338.183685 765.622925,334.731140 
	C765.765442,326.570190 765.671021,318.404816 765.646118,310.241302 
	C765.627380,304.097687 763.936096,301.472687 760.015625,301.400391 
	C755.758850,301.321869 752.536377,304.792908 752.409851,310.170013 
	C752.221802,318.162842 752.193054,326.166107 752.380249,334.158295 
	C752.469849,337.983643 751.261414,339.493988 747.246460,339.430054 
	C735.036560,339.235626 722.811707,339.679169 710.610840,339.296417 
	C697.330017,338.879761 690.216736,331.246033 689.683899,317.664917 
	C689.540344,314.004852 689.516663,310.330322 689.664246,306.671539 
	C689.797607,303.365753 688.285889,302.400818 685.162231,302.319763 
	C675.464539,302.068085 672.359192,305.009430 672.346191,314.904602 
	C672.337708,321.402130 672.193298,327.903290 672.370728,334.395691 
	C672.468506,337.973633 671.308350,339.473938 667.534729,339.422791 
	C655.374878,339.257874 643.210876,339.293854 631.049744,339.399231 
	C628.114441,339.424652 626.668823,338.351959 625.555725,335.573334 
	C621.846497,326.313873 621.715637,326.366486 611.458130,326.372253 
	C608.959106,326.373657 606.460022,326.369965 603.960999,326.374695 
	C596.034119,326.389709 595.766174,326.308197 593.427124,333.895508 
	C592.111328,338.163513 589.932495,339.730743 585.554504,339.450958 
	C580.410706,339.122284 575.228821,339.304260 570.065613,339.394043 
	C566.149048,339.462128 564.793091,337.945923 566.421753,334.202911 
	C575.562744,313.194763 584.769775,292.214752 593.772766,271.147583 
	C595.617554,266.830872 598.275146,265.191956 602.952148,265.551819 
	C608.252502,265.959686 613.607727,265.676727 618.938843,265.651581 
	C621.118042,265.641296 622.501282,266.241272 623.488647,268.562469 
	C629.984985,283.833923 636.697388,299.013397 643.315491,314.233246 
	C644.033813,315.885101 644.414856,317.731232 646.357971,318.627228 
	C648.371155,317.366821 647.591553,315.347748 647.606689,313.685181 
	C647.691528,304.356140 647.811890,295.021851 647.576538,285.698059 
	C647.475525,281.696655 648.934326,280.394897 652.792908,280.601807 
	C657.444458,280.851257 662.121338,280.739136 666.783691,280.629608 
	C669.284912,280.570892 671.404968,280.867004 671.913513,284.089874 
	C676.315125,281.821960 680.576660,280.245117 684.987000,279.862091 
	C688.774719,279.533142 690.062073,277.930878 689.624512,274.510193 
	C689.042053,269.956848 690.846985,268.243652 695.474243,268.583160 
	C700.280029,268.935730 705.135193,268.780792 709.961731,268.626740 
	C713.141602,268.525269 714.654846,269.684601 714.337769,272.959473 
	C714.241882,273.949249 714.320007,274.957397 714.340820,275.956696 
	C714.476135,282.457001 712.823059,284.089508 721.922241,283.633789 
	C725.072205,283.476013 726.543030,284.597778 726.366699,287.912323 
	C726.189880,291.234894 726.175781,294.583374 726.371765,297.903900 
	C726.584778,301.512909 724.849976,302.682159 721.117737,302.373840 
M608.484619,294.869293 
	C607.619995,298.980865 604.388550,302.397858 604.717712,307.027496 
	C607.822144,307.986938 610.720459,307.716522 614.194885,307.246460 
	C612.707031,302.569305 611.781799,298.068817 608.484619,294.869293 
z"/>
<path fill="#000000" opacity="1.000000" stroke="none" 
	d="
M205.448669,304.900940 
	C211.812759,303.505707 217.933777,303.726074 224.198898,303.491028 
	C223.840683,300.189056 221.703262,299.760406 219.863297,299.529205 
	C215.362259,298.963684 210.600281,298.932068 206.757187,301.320526 
	C202.618378,303.892822 200.858643,302.648743 199.430542,298.755829 
	C199.112152,297.887878 198.366333,297.176758 197.771835,296.328583 
	C195.477112,297.899384 196.531097,300.172638 196.021637,301.968781 
	C193.534134,310.738403 183.503540,318.954254 173.738953,320.403137 
	C168.784058,321.138336 163.842880,321.580750 158.867249,321.322998 
	C155.339005,321.140198 153.936737,322.598236 154.349792,326.012848 
	C154.369644,326.176941 154.353271,326.345642 154.350601,326.512146 
	C154.144363,339.382263 154.144363,339.382263 140.996262,339.369659 
	C127.651093,339.356812 127.650459,339.356812 127.650352,326.004456 
	C127.650215,307.852661 127.774254,289.699402 127.564339,271.550049 
	C127.512428,267.062439 128.762741,265.419098 133.437958,265.551086 
	C144.253815,265.856445 155.084274,265.618561 165.908600,265.657837 
	C179.689896,265.707855 190.394211,270.841248 196.292068,284.733063 
	C202.403152,282.324127 208.800186,281.039185 215.314056,280.158325 
	C223.978333,278.986664 232.277710,280.340485 239.958923,284.082947 
	C247.488449,287.751495 250.873230,294.827942 251.230988,302.840637 
	C251.705887,313.477234 251.248550,324.152466 251.396347,334.808289 
	C251.444855,338.305634 250.130249,339.550323 246.705246,339.400177 
	C242.217590,339.203430 237.709488,339.218140 233.220245,339.395966 
	C229.897247,339.527588 228.084549,338.457489 228.802795,333.925781 
	C220.721100,341.079559 212.066544,340.953827 203.275314,338.266998 
	C196.000656,336.043671 191.896164,330.321594 191.654541,323.158600 
	C191.343109,313.926636 194.178238,309.276276 202.195923,305.932129 
	C203.113968,305.549194 204.090942,305.307587 205.448669,304.900940 
M155.407608,285.886902 
	C153.216110,289.933411 154.727600,294.262512 154.487518,298.455811 
	C154.426605,299.519958 155.200546,300.442444 156.296631,300.473145 
	C159.882385,300.573700 163.568436,301.409088 166.926773,299.320496 
	C169.544662,297.692383 170.839966,295.380310 170.598068,292.275574 
	C170.363754,289.268219 168.529358,287.588989 165.877502,286.525665 
	C162.719391,285.259430 159.472443,285.126740 155.407608,285.886902 
M221.830811,316.439331 
	C220.885376,316.725006 219.944534,317.027039 218.993546,317.292847 
	C217.119827,317.816559 215.210770,318.743378 215.820938,320.919434 
	C216.573822,323.604553 219.078430,323.840546 221.536530,323.661804 
	C224.585922,323.440094 225.941620,321.266296 226.352295,318.772675 
	C226.849442,315.753967 224.244431,316.611786 221.830811,316.439331 
z"/>
<path fill="#000000" opacity="1.000000" stroke="none" 
	d="
M855.613342,288.064514 
	C855.671875,280.687073 855.671875,280.681702 862.393188,280.664978 
	C866.389526,280.655060 870.386047,280.691589 874.382080,280.656647 
	C876.917542,280.634491 879.493958,280.437744 879.952515,284.042725 
	C884.108154,282.027985 888.030212,280.779633 892.092285,279.931061 
	C895.532288,279.212433 897.520508,279.926270 897.385498,284.031464 
	C897.194946,289.824005 897.337219,295.627472 897.337219,301.043762 
	C894.755371,303.218781 892.333740,301.952545 890.108948,302.177246 
	C883.627441,302.831879 880.428772,305.994354 880.366333,312.421906 
	C880.295105,319.747894 880.205750,327.077850 880.374390,334.400269 
	C880.456665,337.971588 879.330750,339.588013 875.543762,339.409332 
	C870.725647,339.182037 865.878418,339.161102 861.062866,339.414185 
	C856.994141,339.628052 855.500488,338.186768 855.550720,334.014435 
	C855.733215,318.863892 855.617004,303.709808 855.613342,288.064514 
z"/>
</svg>